<svg viewBox="0 0 109.05 109" xmlns="http://www.w3.org/2000/svg"><path d="m76.41 0h-68.28c-2.24 0-4.27.91-5.74 2.38s-2.39 3.5-2.39 5.74v78.24c0 2.23.92 4.25 2.39 5.72v.02c1.47 1.46 3.5 2.38 5.74 2.38h6.43v6.4c0 2.23.92 4.27 2.39 5.74h.01c1.47 1.46 3.5 2.38 5.73 2.38h78.23c2.24 0 4.27-.92 5.74-2.38 1.47-1.47 2.39-3.51 2.39-5.74v-68.42zm26.63 100.88c0 .58-.24 1.11-.62 1.49-.39.39-.92.63-1.5.63h-78.23c-.59 0-1.12-.24-1.5-.63-.38-.38-.62-.91-.62-1.49v-78.24c0-.58.23-1.12.62-1.5.38-.38.91-.62 1.5-.62h62.43v16.26c0 1.28 1.05 2.33 2.33 2.33h15.59z" fill="#2688c0" fill-rule="evenodd"/><path d="m103.04 39.11v61.77c0 .58-.24 1.11-.62 1.49-.39.39-.92.63-1.5.63h-78.23c-.59 0-1.12-.24-1.5-.63-.38-.38-.62-.91-.62-1.49v-78.24c0-.58.23-1.12.62-1.5.38-.38.91-.62 1.5-.62h62.43v16.26c0 1.28 1.05 2.33 2.33 2.33z" fill="#fff" fill-rule="evenodd"/><g fill="#2688c0"><path d="m76.71 40.68h-48.78c-1.19 0-2.15.96-2.15 2.15s.97 2.15 2.15 2.15h48.78c1.19 0 2.15-.96 2.15-2.15s-.96-2.15-2.15-2.15z"/><path d="m55 55.08h-27.07c-1.19 0-2.15.97-2.15 2.15s.97 2.15 2.15 2.15h27.08c1.19 0 2.15-.96 2.15-2.15s-.97-2.15-2.15-2.15z"/><path d="m49.46 69.49h-21.53c-1.19 0-2.15.97-2.15 2.15s.97 2.15 2.15 2.15h21.54c1.19 0 2.15-.97 2.15-2.15s-.96-2.15-2.15-2.15z"/><path d="m42.51 83.9h-14.58c-1.19 0-2.15.97-2.15 2.15s.97 2.15 2.15 2.15h14.58c1.19 0 2.15-.97 2.15-2.15s-.97-2.15-2.15-2.15z"/><path d="m98.84 95.39-6.13-5.41c2.82-3.56 4.51-8.06 4.51-12.95 0-5.77-2.34-11.01-6.13-14.8s-9.02-6.13-14.8-6.13-11.01 2.34-14.8 6.13l-.11.12c-3.72 3.78-6.02 8.97-6.02 14.68s2.35 11.01 6.13 14.79c3.79 3.79 9.02 6.14 14.8 6.14 5.11 0 9.79-1.84 13.42-4.88l6.29 5.54c.89.79 2.25.7 3.04-.19.78-.89.7-2.25-.2-3.04zm-32.18-9.91c0 1.34-1.08 2.42-2.42 2.42s-2.43-1.08-2.43-2.42v-6.8c0-1.34 1.09-2.43 2.43-2.43s2.42 1.09 2.42 2.43zm7.43 0c0 1.34-1.09 2.42-2.43 2.42s-2.43-1.08-2.43-2.42v-3.33c0-1.34 1.09-2.43 2.43-2.43s2.43 1.09 2.43 2.43zm7.42 0c0 1.34-1.08 2.42-2.43 2.42s-2.42-1.08-2.42-2.42v-12.01c0-1.34 1.08-2.42 2.42-2.42s2.43 1.08 2.43 2.42zm7.43 0c0 1.34-1.09 2.42-2.43 2.42s-2.43-1.08-2.43-2.42v-17.21c0-1.34 1.09-2.43 2.43-2.43s2.43 1.09 2.43 2.43z"/></g></svg>