<svg xmlns="http://www.w3.org/2000/svg" width="245" height="245" fill="none">
  <path fill="currentColor" fill-rule="evenodd" d="m187.351 139.188 2.449 1.543c.717.452 2.006 1.264 3.17 1.878.463.244.865.435 1.179.558.739-.862 1.515-1.454 2.494-1.784 1.036-.348 2.191-.347 3.38-.346h.16c1.181 0 2.265.62 3.064 1.348a7.148 7.148 0 0 1 1.924 2.938c.394 1.163.49 2.522-.026 3.85-.435 1.12-1.258 2.094-2.46 2.861l-4.201 56.577-2.992-.222 4.109-55.34c-.12.007-.241.012-.361.014-.936.013-1.972-.147-2.891-.579a6.47 6.47 0 0 1-1.491-.99 12.654 12.654 0 0 1-.216-.189l-6.488 3.269-.803-15.386Zm3.295 5.565.265 5.073 4.106-2.07.745.563c.288.218.593.491.823.697l.228.202c.272.234.511.409.813.551.414.195.976.303 1.57.294.602-.009 1.097-.135 1.377-.276 1.093-.551 1.572-1.177 1.776-1.701.21-.539.199-1.157-.019-1.799a4.14 4.14 0 0 0-1.104-1.684c-.499-.455-.893-.566-1.043-.566-1.417 0-2.069.017-2.584.19-.398.134-.836.41-1.538 1.353-.503.677-1.253.73-1.578.722a3.626 3.626 0 0 1-1.018-.194c-.589-.191-1.264-.513-1.895-.846a31.491 31.491 0 0 1-.924-.509Z" clip-rule="evenodd"/>
  <path fill="currentColor" fill-rule="evenodd" d="m138.027 182.028-.521 18.753a378.81 378.81 0 0 0 12.242-.587c.73-.047 1.33-.089 1.779-.121l.503-17.102 1.999.059-.512 17.417.116 1.471-.16.013-.503 17.098-1.999-.059.497-16.887c-.426.029-.96.066-1.591.107a380.82 380.82 0 0 1-12.426.594l-.479 17.243-1.999-.055.475-17.13c-4.505.117-9.489.162-14.423.04-.834-.021-1.689-.047-2.56-.078l-.492 18.223-2-.054.494-18.248c-5.575-.24-11.637-.656-17-1.093l-.498 16.398-1.999-.061.5-16.503a385.472 385.472 0 0 1-10.494-1.01 73.005 73.005 0 0 1-2.502-.314 6.763 6.763 0 0 1-.652-.122 1.116 1.116 0 0 1-.361-.155 1.007 1.007 0 0 1 .202-1.793c.127-.048.169-.043.278-.065.383-.079.994-.116.994-.116l.035.302c.513.074 1.268.167 2.231.276 2.184.247 5.389.565 9.123.891.397.035.8.07 1.207.104l.5-16.494 1.999.061-.503 16.6c5.364.437 11.428.854 16.994 1.094l.506-18.752 2 .054-.508 18.778c.87.031 1.723.057 2.555.078 4.933.121 9.923.075 14.43-.044l.524-18.866 1.999.055Z" clip-rule="evenodd"/>
  <path fill="currentColor" fill-rule="evenodd" d="M110.983 125.286c1.373-.674 5.497-1.786 10.641-1.786h.063l35.44 3.005-.254 2.99-35.312-2.995c-4.805.009-8.416 1.066-9.257 1.479-6.857 3.365-10.804 11.096-10.804 18.242 0 1.07.007 2.595.662 4.288.642 1.661 1.95 3.584 4.732 5.322 1.867 1.166 3.247 1.772 5.481 2.236 2.332.483 5.549.804 11.133 1.352C134.543 160.502 150.789 161 152.5 161v3c-1.796 0-18.141-.502-29.285-1.595-5.505-.541-8.921-.876-11.449-1.401-2.625-.545-4.333-1.299-6.462-2.629-3.317-2.071-5.058-4.501-5.94-6.785-.864-2.233-.864-4.231-.864-5.342v-.027c0-8.09 4.429-16.984 12.483-20.935Z" clip-rule="evenodd"/>
  <path fill="currentColor" fill-rule="evenodd" d="m122.309 157.515.083.011c10.071 1.273 16.437-4.194 17.349-11.105.461-3.494-.541-6.542-3.28-8.991-2.863-2.56-7.874-4.673-15.769-5.446l-.042-.004-.042-.006c-5.102-.645-9.163.423-12.007 2.386-2.829 1.954-4.65 4.921-5.125 8.516-.212 1.61-.338 3.525-.19 5.317.152 1.851.57 3.23 1.162 4.059 1.016 1.425 3.081 2.657 6.39 3.58 3.236.904 7.188 1.384 11.387 1.677l.084.006ZM122 160.5c-8.513-.595-16.779-1.985-20-6.5-2.091-2.931-1.959-8.024-1.5-11.5 1.165-8.83 9.076-14.945 20.5-13.5 16.466 1.612 22.882 8.968 21.717 17.797-1.165 8.83-9.293 15.148-20.717 13.703Z" clip-rule="evenodd"/>
  <rect width="9" height="7" x="115" y="138" fill="currentColor" rx="2"/>
  <rect width="11" height="8" x="164" y="139" fill="currentColor" rx="2"/>
  <path fill="currentColor" fill-rule="evenodd" d="m110.791 66.17-2.481.31c-9.424 1.179-16.897 5.15-22.686 11.45-5.815 6.331-10.033 15.131-12.68 26.096-1.201 6.367-1.763 13.784-2.263 20.386a504.65 504.65 0 0 1-.473 5.956c-.243 2.764-.84 25.277-1.474 49.24-.41 15.482-.836 31.57-1.193 43.328 5.29 3.382 18.765 9.608 37.343 11.172 18.589 1.565 36.829-1.904 45.116-4.216v-8.858l-10.307.85-.092.01-.346.034c-.3.03-.738.071-1.295.118-1.115.094-2.71.214-4.646.316-3.866.204-9.12.342-14.634.068-5.567-.278-11.291-1.159-16.203-2.292-4.855-1.118-9.13-2.53-11.691-3.953-2.444-1.357-4.37-2.862-5.817-4.669-1.46-1.826-2.339-3.844-2.843-6.089-1.23-5.474-.057-12.238 3.81-16.701 3.795-4.378 8.606-6.077 10.346-6.651 1.393-.459 7.102-1.738 15.457-1.738 6.158 0 35.594.396 49.942 1.045l.646-9.046-24.099-1.519c-7.03-.357-23.219-1.509-30.86-3.287l-.287-.067c-4.351-1.012-6.795-1.581-8.576-2.242-1.938-.719-3.128-1.56-4.942-2.842l-.114-.081c-4.372-3.089-10.297-10.796-10.297-21.396a27.43 27.43 0 0 1 2.394-11.239 24.376 24.376 0 0 1 1.667-3.11 17.148 17.148 0 0 1 .776-1.116l.027-.039c.048-.066.113-.156.196-.265.166-.218.403-.516.71-.869a20.956 20.956 0 0 1 2.712-2.587c2.379-1.898 5.977-3.925 10.701-4.237 2.734-.18 17.765-.371 30.774.538 4.81.336 11.007.875 16.219 1.328l.026.002c5.333.463 9.412.815 10.211.815h2.935v-9.237c-.982-13.379-4.366-21.47-7.144-26.1-2.822-4.704-10.355-14.078-22.946-17.138l-2.43-.59 1.181-4.86 2.429.591c14.409 3.502 22.876 14.129 26.054 19.425 3.216 5.36 6.823 14.243 7.849 28.4l.007.091v14.418h-7.935c-1.053 0-5.266-.366-10.188-.794l-.455-.04c-5.231-.454-11.394-.99-16.161-1.323-12.824-.896-27.624-.7-30.096-.537-3.428.226-6.08 1.694-7.913 3.156a16.01 16.01 0 0 0-2.061 1.966 11.432 11.432 0 0 0-.606.753l-.016.022-.001.003-.002.002-.054.08-.061.076-.001.001-.002.003-.014.018a12.051 12.051 0 0 0-.506.735c-.351.55-.834 1.383-1.322 2.468a22.43 22.43 0 0 0-1.954 9.19c0 8.755 4.945 15.025 8.182 17.313 1.926 1.36 2.628 1.843 3.911 2.318 1.441.535 3.549 1.031 8.257 2.127 7.135 1.661 22.885 2.803 29.994 3.164l.016.001 29.161 1.839-1.355 18.967-2.455-.135c-12.974-.713-45.615-1.159-52.124-1.159-7.949 0-13.11 1.229-13.89 1.487-1.522.501-5.254 1.853-8.133 5.176-2.655 3.064-3.656 8.128-2.712 12.331.366 1.626.955 2.918 1.87 4.061.928 1.16 2.284 2.28 4.34 3.423 1.939 1.077 5.664 2.363 10.385 3.451 4.664 1.075 10.093 1.909 15.33 2.17 5.29.263 10.362.132 14.121-.067a140.984 140.984 0 0 0 5.719-.417l.239-.024.078-.008.077-.008.022-.002m0 0 .033-.004L155 215.605v17.991l-1.752.55c-7.658 2.402-27.953 6.698-48.784 4.944-20.86-1.756-35.828-9.143-40.929-12.83l-1.075-.777.041-1.326c.357-11.574.792-27.978 1.213-43.879.644-24.308 1.258-47.442 1.513-50.347.153-1.738.297-3.653.45-5.679.504-6.666 1.099-14.532 2.367-21.218l.011-.06.014-.059c2.777-11.536 7.304-21.216 13.873-28.367 6.606-7.191 15.172-11.707 25.748-13.029l2.481-.31.62 4.962" clip-rule="evenodd"/>
  <path fill="currentColor" fill-rule="evenodd" d="M168.101 171.149c13.862 0 25.1-11.002 25.1-24.574 0-13.573-11.238-24.575-25.1-24.575C154.238 122 143 133.002 143 146.575c0 13.572 11.238 24.574 25.101 24.574Zm-.107-4.48c10.866 0 19.675-8.809 19.675-19.675 0-10.867-8.809-19.676-19.675-19.676-10.867 0-19.676 8.809-19.676 19.676 0 10.866 8.809 19.675 19.676 19.675Z" clip-rule="evenodd"/>
  <path fill="currentColor" d="M0 122.125c0 67.447 54.677 122.124 122.125 122.124 67.447 0 122.124-54.677 122.124-122.124C244.249 54.677 189.572 0 122.125 0 54.677 0 0 54.677 0 122.125Zm14.999 0c0-59.164 47.962-107.126 107.126-107.126 59.163 0 107.125 47.962 107.125 107.126 0 59.163-47.962 107.125-107.125 107.125-59.164 0-107.126-47.962-107.126-107.125Z"/>
  <path fill="currentColor" fill-rule="evenodd" d="M122.87 55.624a19.796 19.796 0 0 1 4.863 1.29c4.05 1.67 6.697 4.556 6.575 7.736-.185 4.795-6.597 8.44-14.321 8.142-7.725-.297-13.837-4.425-13.652-9.22.122-3.172 2.969-5.84 7.12-7.198a19.757 19.757 0 0 1 4.922-.918l-.239 2.797a1.303 1.303 0 0 0 .05.58c.079.257.234.494.445.699.427.413 1.087.692 1.837.72.722.029 1.379-.18 1.835-.535.29-.226.499-.51.592-.829a1.29 1.29 0 0 0 .048-.499l-.075-2.765Zm3.957 6.185a6.804 6.804 0 0 1-1.916 1.978c-1.386.943-3.017.868-4.608.806-1.592-.061-3.224-.111-4.533-1.158a6.807 6.807 0 0 1-1.758-2.12 8.73 8.73 0 0 0-1.417.754c-1.345.897-1.433 1.574-1.437 1.689-.005.118.054.974 1.738 2.11 1.613 1.09 4.167 1.982 7.276 2.101 3.11.12 5.725-.572 7.417-1.534 1.766-1.004 1.891-1.853 1.896-1.97.004-.116-.032-.802-1.313-1.803a8.769 8.769 0 0 0-1.345-.853Z" clip-rule="evenodd"/>
  <path fill="currentColor" fill-rule="evenodd" d="m116.383 32.14 9.117.352 2.267 25.665c.012.197.014.395.006.594-.092 2.382-1.478 4.094-2.862 5.036-1.386.943-3.017.868-4.608.806-1.592-.061-3.224-.111-4.533-1.158-1.307-1.046-2.558-2.86-2.466-5.242.005-.142.016-.283.031-.424l3.048-25.628Zm1.755 26.114 2.79-24.489 2.017 24.624a1.285 1.285 0 0 1-.048.5c-.239.82-1.227.927-2.409.881-1.12-.043-2.059-.162-2.3-.937a1.33 1.33 0 0 1-.05-.58Z" clip-rule="evenodd"/>
  <path fill="currentColor" fill-rule="evenodd" d="M120.908 31.865a4.85 4.85 0 1 0 .373-9.695 4.85 4.85 0 0 0-.373 9.695Zm-.17 4.407a9.262 9.262 0 0 0 9.611-8.898 9.261 9.261 0 1 0-18.509-.713 9.261 9.261 0 0 0 8.898 9.611Z" clip-rule="evenodd"/>
</svg>
