<?xml version="1.0" encoding="utf-8"?>
<!-- Generator: Adobe Illustrator 16.0.0, SVG Export Plug-In . SVG Version: 6.00 Build 0)  -->
<!DOCTYPE svg PUBLIC "-//W3C//DTD SVG 1.1//EN" "http://www.w3.org/Graphics/SVG/1.1/DTD/svg11.dtd">
<svg version="1.1" id="Слой_1" xmlns="http://www.w3.org/2000/svg" xmlns:xlink="http://www.w3.org/1999/xlink" x="0px" y="0px"
	 width="512px" height="512px" viewBox="0 0 512 512" enable-background="new 0 0 512 512" xml:space="preserve">
<circle fill="#FFFFFF" cx="256" cy="255.75" r="244.25"/>
<linearGradient id="SVGID_1_" gradientUnits="userSpaceOnUse" x1="364.2795" y1="997.4219" x2="678.2888" y2="623.1999" gradientTransform="matrix(1 0 0 1 -265.2847 -554.5605)">
	<stop  offset="0" style="stop-color:#001D32"/>
	<stop  offset="1" style="stop-color:#40BFE8"/>
</linearGradient>
<path fill="url(#SVGID_1_)" d="M256,11.5c-134.896,0-244.25,109.354-244.25,244.25C11.75,390.646,121.104,500,256,500
	c134.896,0,244.25-109.354,244.25-244.25C500.25,120.854,390.896,11.5,256,11.5z M256,470.002
	c-118.328,0-214.252-95.924-214.252-214.252S137.672,41.498,256,41.498c118.327,0,214.252,95.924,214.252,214.252
	S374.327,470.002,256,470.002z"/>
<linearGradient id="SVGID_2_" gradientUnits="userSpaceOnUse" x1="124.2693" y1="411.7998" x2="385.732" y2="100.2004">
	<stop  offset="0" style="stop-color:#001D32"/>
	<stop  offset="1" style="stop-color:#40BFE8"/>
</linearGradient>
</svg>
