<svg xmlns="http://www.w3.org/2000/svg" xmlns:xlink="http://www.w3.org/1999/xlink" xml:space="preserve" width="682.667" height="682.667">
  <defs>
    <path id="reuse-0" d="M0 512h512V0H0Z"/>
  </defs>
  <defs>
    <clipPath id="a" clipPathUnits="userSpaceOnUse">
      <use xlink:href="#reuse-0"/>
    </clipPath>
    <clipPath id="b" clipPathUnits="userSpaceOnUse">
      <path d="M11.75 256.25C11.75 121.354 121.104 12 256 12c134.896 0 244.25 109.354 244.25 244.25 0 134.896-109.354 244.25-244.25 244.25-134.896 0-244.25-109.354-244.25-244.25m29.998 0c0 118.328 95.924 214.252 214.252 214.252 118.327 0 214.252-95.924 214.252-214.252S374.327 41.998 256 41.998c-118.328 0-214.252 95.924-214.252 214.252"/>
    </clipPath>
    <clipPath id="d" clipPathUnits="userSpaceOnUse">
      <path d="M99.958 217.902c0-41.712 15.934-73.457 47.36-94.352 27.106-18.021 64.47-27.16 111.058-27.16 46.586 0 83.953 9.139 111.055 27.16 31.425 20.895 47.36 52.64 47.36 94.352 0 87.351-71.064 158.418-158.415 158.418-87.354 0-158.418-71.067-158.418-158.418m54.296-83.922c-27.718 18.43-41.77 46.664-41.77 83.922 0 80.444 65.447 145.892 145.892 145.892s145.89-65.448 145.89-145.892c0-37.258-14.054-65.492-41.771-83.922-24.658-16.398-60.665-25.065-104.119-25.065-43.457 0-79.461 8.667-104.122 25.065"/>
    </clipPath>
    <clipPath id="f" clipPathUnits="userSpaceOnUse">
      <path d="M135.283 206.578c0-29.542 12.734-50.421 37.848-62.054 19.126-8.859 45.416-12.81 85.245-12.81 39.828 0 66.116 3.951 85.243 12.81 25.115 11.633 37.848 32.512 37.848 62.054 0 27.546-12.688 47.767-37.71 60.103-20.151 9.935-48.079 14.763-85.381 14.763-81.679 0-123.093-25.189-123.093-74.866m12.525 0c0 41.951 36.166 62.341 110.568 62.341 35.336 0 61.453-4.406 79.839-13.471 20.679-10.193 30.726-26.178 30.726-48.87 0-51.738-44.198-62.339-110.565-62.339-66.366 0-110.568 10.601-110.568 62.339"/>
    </clipPath>
    <clipPath id="h" clipPathUnits="userSpaceOnUse">
      <path d="M179.016 220.274c0-12.445 10.125-22.571 22.572-22.571 12.445 0 22.571 10.126 22.571 22.571 0 12.447-10.126 22.573-22.571 22.573-12.447 0-22.572-10.126-22.572-22.573m12.526 0c0 5.54 4.507 10.048 10.046 10.048 5.54 0 10.047-4.508 10.047-10.048 0-5.538-4.507-10.046-10.047-10.046-5.539 0-10.046 4.508-10.046 10.046"/>
    </clipPath>
    <clipPath id="j" clipPathUnits="userSpaceOnUse">
      <path d="M292.59 221.164c0-12.445 10.127-22.571 22.573-22.571 12.445 0 22.569 10.126 22.569 22.571 0 12.446-10.124 22.572-22.569 22.572-12.446 0-22.573-10.126-22.573-22.572m12.524 0c0 5.54 4.508 10.047 10.049 10.047 5.538 0 10.045-4.507 10.045-10.047 0-5.539-4.507-10.046-10.045-10.046-5.541 0-10.049 4.507-10.049 10.046"/>
    </clipPath>
    <clipPath id="l" clipPathUnits="userSpaceOnUse">
      <path d="M277.906 182.545c.126-11.026-9.749-15.278-18.24-15.571-8.04-.317-20.212 3.282-20.844 14.222l-12.504-.722c.996-17.282 16.792-26.041 32.354-26.041.475 0 .951.007 1.425.024 18.041.621 30.514 12.23 30.334 28.229z"/>
    </clipPath>
    <clipPath id="n" clipPathUnits="userSpaceOnUse">
      <use xlink:href="#reuse-0"/>
    </clipPath>
    <clipPath id="o" clipPathUnits="userSpaceOnUse">
      <path d="M255.402 211.87c0-43.69 35.542-79.233 79.232-79.233a78.731 78.731 0 0 1 32.056 6.801l12.483-19.921.055.035c.185-.372.389-.739.615-1.1 3.687-5.887 11.452-7.669 17.341-3.979 5.886 3.69 7.669 11.455 3.978 17.343-.226.36-.468.703-.722 1.032l.052.032-12.71 20.281c16.01 14.507 26.082 35.453 26.082 58.709 0 43.688-35.541 79.231-79.23 79.231-43.69 0-79.232-35.543-79.232-79.231m12.525 0c0 36.781 29.925 66.706 66.707 66.706 36.781 0 66.706-29.925 66.706-66.706 0-36.783-29.925-66.707-66.706-66.707-36.782 0-66.707 29.924-66.707 66.707"/>
    </clipPath>
    <linearGradient id="c" x1="0" x2="1" y1="0" y2="0" gradientTransform="scale(488.512 -488.512) rotate(-50 -.05 -.288)" gradientUnits="userSpaceOnUse" spreadMethod="pad">
      <stop offset="0" stop-color="#001d32"/>
      <stop offset="1" stop-color="#40bfe8"/>
    </linearGradient>
    <linearGradient id="e" x1="0" x2="1" y1="0" y2="0" gradientTransform="scale(302.7348 -302.7348) rotate(-50 -.12 -.757)" gradientUnits="userSpaceOnUse" spreadMethod="pad">
      <stop offset="0" stop-color="#001d32"/>
      <stop offset="1" stop-color="#40bfe8"/>
    </linearGradient>
    <linearGradient id="g" x1="0" x2="1" y1="0" y2="0" gradientTransform="scale(208.23072 -208.23072) rotate(-50 -.188 -1.288)" gradientUnits="userSpaceOnUse" spreadMethod="pad">
      <stop offset="0" stop-color="#001d32"/>
      <stop offset="1" stop-color="#40bfe8"/>
    </linearGradient>
    <linearGradient id="i" x1="0" x2="1" y1="0" y2="0" gradientTransform="scale(45.12378 -45.12378) rotate(-50 -2.75 -6.695)" gradientUnits="userSpaceOnUse" spreadMethod="pad">
      <stop offset="0" stop-color="#114563"/>
      <stop offset="1" stop-color="#1880a9"/>
    </linearGradient>
    <linearGradient id="k" x1="0" x2="1" y1="0" y2="0" gradientTransform="scale(45.12347 -45.12347) rotate(-50 -1.513 -9.404)" gradientUnits="userSpaceOnUse" spreadMethod="pad">
      <stop offset="0" stop-color="#114563"/>
      <stop offset="1" stop-color="#1880a9"/>
    </linearGradient>
    <linearGradient id="m" x1="0" x2="1" y1="0" y2="0" gradientTransform="scale(51.03198 -51.03198) rotate(-50 -.925 -6.619)" gradientUnits="userSpaceOnUse" spreadMethod="pad">
      <stop offset="0" stop-color="#10334f"/>
      <stop offset="1" stop-color="#135375"/>
    </linearGradient>
    <linearGradient id="p" x1="0" x2="1" y1="0" y2="0" gradientTransform="scale(158.39508 -158.39508) rotate(-50 -.02 -2.448)" gradientUnits="userSpaceOnUse" spreadMethod="pad">
      <stop offset="0" stop-color="#10334f"/>
      <stop offset="1" stop-color="#40bfe8"/>
    </linearGradient>
  </defs>
  <g clip-path="url(#a)" transform="matrix(1.33333 0 0 -1.33333 0 682.667)">
    <path fill="#fff" d="M256 500.5c134.896 0 244.25-109.354 244.25-244.25C500.25 121.354 390.896 12 256 12 121.104 12 11.75 121.354 11.75 256.25 11.75 391.146 121.104 500.5 256 500.5"/>
  </g>
  <g clip-path="url(#b)" transform="matrix(1.33333 0 0 -1.33333 0 682.667)">
    <path fill="url(#c)" d="M11.75 256.25C11.75 121.354 121.104 12 256 12c134.896 0 244.25 109.354 244.25 244.25 0 134.896-109.354 244.25-244.25 244.25-134.896 0-244.25-109.354-244.25-244.25m29.998 0c0 118.328 95.924 214.252 214.252 214.252 118.327 0 214.252-95.924 214.252-214.252S374.327 41.998 256 41.998c-118.328 0-214.252 95.924-214.252 214.252"/>
  </g>
  <g clip-path="url(#d)" transform="matrix(1.33333 0 0 -1.33333 0 682.667)">
    <path fill="url(#e)" d="M99.958 217.902c0-41.712 15.934-73.457 47.36-94.352 27.106-18.021 64.47-27.16 111.058-27.16 46.586 0 83.953 9.139 111.055 27.16 31.425 20.895 47.36 52.64 47.36 94.352 0 87.351-71.064 158.418-158.415 158.418-87.354 0-158.418-71.067-158.418-158.418m54.296-83.922c-27.718 18.43-41.77 46.664-41.77 83.922 0 80.444 65.447 145.892 145.892 145.892s145.89-65.448 145.89-145.892c0-37.258-14.054-65.492-41.771-83.922-24.658-16.398-60.665-25.065-104.119-25.065-43.457 0-79.461 8.667-104.122 25.065"/>
  </g>
  <g clip-path="url(#f)" transform="matrix(1.33333 0 0 -1.33333 0 682.667)">
    <path fill="url(#g)" d="M135.283 206.578c0-29.542 12.734-50.421 37.848-62.054 19.126-8.859 45.416-12.81 85.245-12.81 39.828 0 66.116 3.951 85.243 12.81 25.115 11.633 37.848 32.512 37.848 62.054 0 27.546-12.688 47.767-37.71 60.103-20.151 9.935-48.079 14.763-85.381 14.763-81.679 0-123.093-25.189-123.093-74.866m12.525 0c0 41.951 36.166 62.341 110.568 62.341 35.336 0 61.453-4.406 79.839-13.471 20.679-10.193 30.726-26.178 30.726-48.87 0-51.738-44.198-62.339-110.565-62.339-66.366 0-110.568 10.601-110.568 62.339"/>
  </g>
  <g clip-path="url(#h)" transform="matrix(1.33333 0 0 -1.33333 0 682.667)">
    <path fill="url(#i)" d="M179.016 220.274c0-12.445 10.125-22.571 22.572-22.571 12.445 0 22.571 10.126 22.571 22.571 0 12.447-10.126 22.573-22.571 22.573-12.447 0-22.572-10.126-22.572-22.573m12.526 0c0 5.54 4.507 10.048 10.046 10.048 5.54 0 10.047-4.508 10.047-10.048 0-5.538-4.507-10.046-10.047-10.046-5.539 0-10.046 4.508-10.046 10.046"/>
  </g>
  <g clip-path="url(#j)" transform="matrix(1.33333 0 0 -1.33333 0 682.667)">
    <path fill="url(#k)" d="M292.59 221.164c0-12.445 10.127-22.571 22.573-22.571 12.445 0 22.569 10.126 22.569 22.571 0 12.446-10.124 22.572-22.569 22.572-12.446 0-22.573-10.126-22.573-22.572m12.524 0c0 5.54 4.508 10.047 10.049 10.047 5.538 0 10.045-4.507 10.045-10.047 0-5.539-4.507-10.046-10.045-10.046-5.541 0-10.049 4.507-10.049 10.046"/>
  </g>
  <g clip-path="url(#l)" transform="matrix(1.33333 0 0 -1.33333 0 682.667)">
    <path fill="url(#m)" d="M277.906 182.545c.126-11.026-9.749-15.278-18.24-15.571-8.04-.317-20.212 3.282-20.844 14.222l-12.504-.722c.996-17.282 16.792-26.041 32.354-26.041.475 0 .951.007 1.425.024 18.041.621 30.514 12.23 30.334 28.229z"/>
  </g>
  <g clip-path="url(#n)" transform="matrix(1.33333 0 0 -1.33333 0 682.667)">
    <path fill="#1b9ecd" d="M250.666 408.575h15.419v-40.922h-15.419z"/>
    <path fill="#1b9ecd" d="M258.376 427.09c-4.596 0-8.336-3.74-8.336-8.337 0-4.596 3.74-8.335 8.336-8.335s8.334 3.74 8.334 8.335c0 4.596-3.738 8.336-8.334 8.336m0-29.197c-11.502 0-20.861 9.358-20.861 20.861s9.359 20.861 20.861 20.861c11.503 0 20.859-9.358 20.859-20.86 0-11.504-9.356-20.862-20.859-20.862"/>
    <path fill="#fff" d="M334.635 284.838c40.3 0 72.968-32.668 72.968-72.968 0-40.3-32.668-72.97-72.968-72.97-40.303 0-72.971 32.67-72.971 72.97s32.668 72.968 72.97 72.968"/>
    <path fill="#fff" d="M334.635 162.53c-27.251 0-49.342 22.09-49.342 49.34"/>
    <path fill="#19a1cf" d="M334.635 158.616c-29.364 0-53.256 23.89-53.256 53.254h7.828c0-25.049 20.378-45.426 45.428-45.426Z"/>
  </g>
  <g clip-path="url(#o)" transform="matrix(1.33333 0 0 -1.33333 0 682.667)">
    <path fill="url(#p)" d="M255.402 211.87c0-43.69 35.542-79.233 79.232-79.233a78.731 78.731 0 0 1 32.056 6.801l12.483-19.921.055.035c.185-.372.389-.739.615-1.1 3.687-5.887 11.452-7.669 17.341-3.979 5.886 3.69 7.669 11.455 3.978 17.343-.226.36-.468.703-.722 1.032l.052.032-12.71 20.281c16.01 14.507 26.082 35.453 26.082 58.709 0 43.688-35.541 79.231-79.23 79.231-43.69 0-79.232-35.543-79.232-79.231m12.525 0c0 36.781 29.925 66.706 66.707 66.706 36.781 0 66.706-29.925 66.706-66.706 0-36.783-29.925-66.707-66.706-66.707-36.782 0-66.707 29.924-66.707 66.707"/>
  </g>
</svg>
